<svg width="78" height="77" viewBox="0 0 78 77" fill="none" xmlns="http://www.w3.org/2000/svg">
<g filter="url(#filter0_d_11687_16955)">
<path d="M15 16C15 9.37257 20.3726 4 27 4H52C58.6274 4 64 9.37258 64 16V56.7121L44.2854 71.428C41.4469 73.5467 37.5531 73.5467 34.7146 71.428L15 56.7121V16Z" fill="#A5B4FC"/>
<rect x="2" y="45" width="74" height="20" rx="10" fill="#4F46E5"/>
<path d="M18.1891 50.2727V59H16.5953L12.7985 53.5071H12.7346V59H10.8894V50.2727H12.5087L16.2757 55.7614H16.3525V50.2727H18.1891ZM22.6625 59.1278C21.9892 59.1278 21.4096 58.9915 20.9238 58.7188C20.4409 58.4432 20.0687 58.054 19.8074 57.5511C19.546 57.0455 19.4153 56.4474 19.4153 55.7571C19.4153 55.0838 19.546 54.4929 19.8074 53.9844C20.0687 53.4759 20.4366 53.0795 20.911 52.7955C21.3883 52.5114 21.948 52.3693 22.59 52.3693C23.0218 52.3693 23.4238 52.4389 23.796 52.5781C24.171 52.7145 24.4977 52.9205 24.7761 53.196C25.0574 53.4716 25.2761 53.8182 25.4324 54.2358C25.5886 54.6506 25.6667 55.1364 25.6667 55.6932V56.1918H20.1397V55.0668H23.9579C23.9579 54.8054 23.9011 54.5739 23.7875 54.3722C23.6738 54.1705 23.5162 54.0128 23.3145 53.8991C23.1156 53.7827 22.8841 53.7244 22.6199 53.7244C22.3443 53.7244 22.1 53.7884 21.8869 53.9162C21.6767 54.0412 21.5119 54.2102 21.3926 54.4233C21.2733 54.6335 21.2122 54.8679 21.2093 55.1264V56.196C21.2093 56.5199 21.269 56.7997 21.3883 57.0355C21.5105 57.2713 21.6824 57.4531 21.9039 57.581C22.1255 57.7088 22.3883 57.7727 22.6923 57.7727C22.894 57.7727 23.0787 57.7443 23.2463 57.6875C23.4139 57.6307 23.5574 57.5455 23.6767 57.4318C23.796 57.3182 23.8869 57.179 23.9494 57.0142L25.6284 57.125C25.5431 57.5284 25.3684 57.8807 25.1042 58.1818C24.8429 58.4801 24.5048 58.7131 24.09 58.8807C23.6781 59.0455 23.2022 59.1278 22.6625 59.1278ZM28.2512 52.4545L29.4529 54.7429L30.6845 52.4545H32.5467L30.6504 55.7273L32.5978 59H30.7441L29.4529 56.7372L28.1831 59H26.3081L28.2512 55.7273L26.3762 52.4545H28.2512ZM37.1064 52.4545V53.8182H33.1646V52.4545H37.1064ZM34.0595 50.8864H35.8748V56.9886C35.8748 57.1562 35.9004 57.2869 35.9515 57.3807C36.0027 57.4716 36.0737 57.5355 36.1646 57.5724C36.2583 57.6094 36.3663 57.6278 36.4885 57.6278C36.5737 57.6278 36.6589 57.6207 36.7441 57.6065C36.8294 57.5895 36.8947 57.5767 36.9402 57.5682L37.2257 58.919C37.1348 58.9474 37.0069 58.9801 36.8422 59.017C36.6774 59.0568 36.4771 59.081 36.2413 59.0895C35.8038 59.1065 35.4203 59.0483 35.0907 58.9148C34.764 58.7812 34.5098 58.5739 34.3279 58.2926C34.1461 58.0114 34.0566 57.6562 34.0595 57.2273V50.8864ZM42.8816 50.2727V59H41.0662V50.2727H42.8816ZM47.3187 59.1278C46.6454 59.1278 46.0659 58.9915 45.5801 58.7188C45.0971 58.4432 44.725 58.054 44.4636 57.5511C44.2022 57.0455 44.0716 56.4474 44.0716 55.7571C44.0716 55.0838 44.2022 54.4929 44.4636 53.9844C44.725 53.4759 45.0929 53.0795 45.5673 52.7955C46.0446 52.5114 46.6042 52.3693 47.2463 52.3693C47.6781 52.3693 48.0801 52.4389 48.4522 52.5781C48.8272 52.7145 49.1539 52.9205 49.4324 53.196C49.7136 53.4716 49.9324 53.8182 50.0886 54.2358C50.2449 54.6506 50.323 55.1364 50.323 55.6932V56.1918H44.796V55.0668H48.6142C48.6142 54.8054 48.5574 54.5739 48.4437 54.3722C48.3301 54.1705 48.1724 54.0128 47.9707 53.8991C47.7718 53.7827 47.5403 53.7244 47.2761 53.7244C47.0005 53.7244 46.7562 53.7884 46.5431 53.9162C46.3329 54.0412 46.1681 54.2102 46.0488 54.4233C45.9295 54.6335 45.8684 54.8679 45.8656 55.1264V56.196C45.8656 56.5199 45.9252 56.7997 46.0446 57.0355C46.1667 57.2713 46.3386 57.4531 46.5602 57.581C46.7818 57.7088 47.0446 57.7727 47.3485 57.7727C47.5502 57.7727 47.7349 57.7443 47.9025 57.6875C48.0701 57.6307 48.2136 57.5455 48.3329 57.4318C48.4522 57.3182 48.5431 57.179 48.6056 57.0142L50.2846 57.125C50.1994 57.5284 50.0247 57.8807 49.7605 58.1818C49.4991 58.4801 49.161 58.7131 48.7463 58.8807C48.3343 59.0455 47.8585 59.1278 47.3187 59.1278ZM57.4341 52.4545L55.1458 59H53.1003L50.812 52.4545H52.7296L54.089 57.1378H54.1571L55.5123 52.4545H57.4341ZM61.1351 59.1278C60.4618 59.1278 59.8823 58.9915 59.3965 58.7188C58.9135 58.4432 58.5414 58.054 58.28 57.5511C58.0186 57.0455 57.888 56.4474 57.888 55.7571C57.888 55.0838 58.0186 54.4929 58.28 53.9844C58.5414 53.4759 58.9093 53.0795 59.3837 52.7955C59.861 52.5114 60.4206 52.3693 61.0627 52.3693C61.4945 52.3693 61.8965 52.4389 62.2686 52.5781C62.6436 52.7145 62.9703 52.9205 63.2488 53.196C63.53 53.4716 63.7488 53.8182 63.905 54.2358C64.0613 54.6506 64.1394 55.1364 64.1394 55.6932V56.1918H58.6124V55.0668H62.4306C62.4306 54.8054 62.3738 54.5739 62.2601 54.3722C62.1465 54.1705 61.9888 54.0128 61.7871 53.8991C61.5882 53.7827 61.3567 53.7244 61.0925 53.7244C60.8169 53.7244 60.5726 53.7884 60.3596 53.9162C60.1493 54.0412 59.9846 54.2102 59.8652 54.4233C59.7459 54.6335 59.6848 54.8679 59.682 55.1264V56.196C59.682 56.5199 59.7417 56.7997 59.861 57.0355C59.9831 57.2713 60.155 57.4531 60.3766 57.581C60.5982 57.7088 60.861 57.7727 61.165 57.7727C61.3667 57.7727 61.5513 57.7443 61.7189 57.6875C61.8865 57.6307 62.03 57.5455 62.1493 57.4318C62.2686 57.3182 62.3596 57.179 62.4221 57.0142L64.101 57.125C64.0158 57.5284 63.8411 57.8807 63.5769 58.1818C63.3155 58.4801 62.9775 58.7131 62.5627 58.8807C62.1507 59.0455 61.6749 59.1278 61.1351 59.1278ZM67.1394 50.2727V59H65.324V50.2727H67.1394Z" fill="white"/>
<circle cx="40" cy="29" r="19" fill="white"/>
<circle cx="40" cy="29" r="15.5556" fill="white" stroke="#E2E8F0" stroke-width="0.888889"/>
<path d="M33.4525 33.0057V23.9545H35.7409V33.0057H33.4525ZM30.0711 29.6243V27.3359H39.1222V29.6243H30.0711ZM47.4703 21.9091V35H44.7025V24.5362H44.6258L41.6279 26.4155V23.9609L44.8687 21.9091H47.4703Z" fill="#4F46E5"/>
</g>
<defs>
<filter id="filter0_d_11687_16955" x="0" y="-1" width="78" height="79" filterUnits="userSpaceOnUse" color-interpolation-filters="sRGB">
<feFlood flood-opacity="0" result="BackgroundImageFix"/>
<feColorMatrix in="SourceAlpha" type="matrix" values="0 0 0 0 0 0 0 0 0 0 0 0 0 0 0 0 0 0 127 0" result="hardAlpha"/>
<feOffset dy="1"/>
<feGaussianBlur stdDeviation="1"/>
<feColorMatrix type="matrix" values="0 0 0 0 0.117647 0 0 0 0 0.160784 0 0 0 0 0.231373 0 0 0 0.05 0"/>
<feBlend mode="normal" in2="BackgroundImageFix" result="effect1_dropShadow_11687_16955"/>
<feBlend mode="normal" in="SourceGraphic" in2="effect1_dropShadow_11687_16955" result="shape"/>
</filter>
</defs>
</svg>
