<svg width="74" height="82" viewBox="0 0 74 82" fill="none" xmlns="http://www.w3.org/2000/svg">
<g filter="url(#filter0_d_11687_16970)">
<path d="M62.1964 59.3148L63 58.715V57.7121V17C63 9.26801 56.732 3 49 3H24C16.268 3 10 9.268 10 17V57.7121V58.715L10.8037 59.3148L30.5183 74.0307C34.0663 76.6792 38.9336 76.6792 42.4817 74.0307L62.1964 59.3148Z" fill="#FACC15" stroke="#EAB308" stroke-width="4"/>
<rect x="2" y="46" width="70" height="20" rx="10" fill="#3730A3"/>
<path d="M18.3054 60V51.2727H24.1861V52.794H20.1506V54.8736H23.8835V56.3949H20.1506V58.4787H24.2031V60H18.3054ZM27.136 53.4545L28.3377 55.7429L29.5692 53.4545H31.4315L29.5352 56.7273L31.4826 60H29.6289L28.3377 57.7372L27.0678 60H25.1928L27.136 56.7273L25.261 53.4545H27.136ZM32.5096 62.4545V53.4545H34.2994V54.554H34.3803C34.4599 54.3778 34.5749 54.1989 34.7255 54.017C34.8789 53.8324 35.0778 53.679 35.3221 53.5568C35.5692 53.4318 35.8761 53.3693 36.2425 53.3693C36.7198 53.3693 37.1602 53.4943 37.5636 53.7443C37.967 53.9915 38.2894 54.3651 38.5309 54.8651C38.7724 55.3622 38.8931 55.9858 38.8931 56.7358C38.8931 57.4659 38.7752 58.0824 38.5394 58.5852C38.3065 59.0852 37.9883 59.4645 37.5849 59.723C37.1843 59.9787 36.7354 60.1065 36.2383 60.1065C35.886 60.1065 35.5863 60.0483 35.3391 59.9318C35.0948 59.8153 34.8945 59.669 34.7383 59.4929C34.582 59.3139 34.4627 59.1335 34.3803 58.9517H34.3249V62.4545H32.5096ZM34.2866 56.7273C34.2866 57.1165 34.3406 57.456 34.4485 57.7457C34.5565 58.0355 34.7127 58.2614 34.9173 58.4233C35.1218 58.5824 35.3704 58.6619 35.663 58.6619C35.9585 58.6619 36.2085 58.581 36.413 58.419C36.6175 58.2543 36.7724 58.027 36.8775 57.7372C36.9854 57.4446 37.0394 57.108 37.0394 56.7273C37.0394 56.3494 36.9869 56.017 36.8817 55.7301C36.7766 55.4432 36.6218 55.2187 36.4173 55.0568C36.2127 54.8949 35.9613 54.8139 35.663 54.8139C35.3675 54.8139 35.1175 54.892 34.913 55.0483C34.7113 55.2045 34.5565 55.4261 34.4485 55.7131C34.3406 56 34.2866 56.3381 34.2866 56.7273ZM43.0863 60.1278C42.413 60.1278 41.8335 59.9915 41.3477 59.7188C40.8647 59.4432 40.4925 59.054 40.2312 58.5511C39.9698 58.0455 39.8391 57.4474 39.8391 56.7571C39.8391 56.0838 39.9698 55.4929 40.2312 54.9844C40.4925 54.4759 40.8604 54.0795 41.3349 53.7955C41.8121 53.5114 42.3718 53.3693 43.0138 53.3693C43.4457 53.3693 43.8477 53.4389 44.2198 53.5781C44.5948 53.7145 44.9215 53.9205 45.1999 54.196C45.4812 54.4716 45.6999 54.8182 45.8562 55.2358C46.0124 55.6506 46.0906 56.1364 46.0906 56.6932V57.1918H40.5636V56.0668H44.3817C44.3817 55.8054 44.3249 55.5739 44.2113 55.3722C44.0977 55.1705 43.94 55.0128 43.7383 54.8991C43.5394 54.7827 43.3079 54.7244 43.0437 54.7244C42.7681 54.7244 42.5238 54.7884 42.3107 54.9162C42.1005 55.0412 41.9357 55.2102 41.8164 55.4233C41.6971 55.6335 41.636 55.8679 41.6332 56.1264V57.196C41.6332 57.5199 41.6928 57.7997 41.8121 58.0355C41.9343 58.2713 42.1062 58.4531 42.3278 58.581C42.5494 58.7088 42.8121 58.7727 43.1161 58.7727C43.3178 58.7727 43.5025 58.7443 43.6701 58.6875C43.8377 58.6307 43.9812 58.5455 44.1005 58.4318C44.2198 58.3182 44.3107 58.179 44.3732 58.0142L46.0522 58.125C45.967 58.5284 45.7923 58.8807 45.5281 59.1818C45.2667 59.4801 44.9286 59.7131 44.5138 59.8807C44.1019 60.0455 43.6261 60.1278 43.0863 60.1278ZM47.2752 60V53.4545H49.0352V54.5966H49.1033C49.2227 54.1903 49.4229 53.8835 49.7042 53.6761C49.9854 53.4659 50.3093 53.3608 50.6758 53.3608C50.7667 53.3608 50.8647 53.3665 50.9698 53.3778C51.0749 53.3892 51.1673 53.4048 51.2468 53.4247V55.0355C51.1616 55.0099 51.0437 54.9872 50.8931 54.9673C50.7425 54.9474 50.6048 54.9375 50.4798 54.9375C50.2127 54.9375 49.9741 54.9957 49.7638 55.1122C49.5565 55.2259 49.3917 55.3849 49.2695 55.5895C49.1502 55.794 49.0906 56.0298 49.0906 56.2969V60H47.2752ZM55.995 53.4545V54.8182H52.0533V53.4545H55.995ZM52.9482 51.8864H54.7635V57.9886C54.7635 58.1562 54.7891 58.2869 54.8402 58.3807C54.8913 58.4716 54.9624 58.5355 55.0533 58.5724C55.147 58.6094 55.255 58.6278 55.3771 58.6278C55.4624 58.6278 55.5476 58.6207 55.6328 58.6065C55.718 58.5895 55.7834 58.5767 55.8288 58.5682L56.1143 59.919C56.0234 59.9474 55.8956 59.9801 55.7308 60.017C55.5661 60.0568 55.3658 60.081 55.13 60.0895C54.6925 60.1065 54.3089 60.0483 53.9794 59.9148C53.6527 59.7812 53.3984 59.5739 53.2166 59.2926C53.0348 59.0114 52.9453 58.6562 52.9482 58.2273V51.8864Z" fill="white"/>
<circle cx="37" cy="30" r="21" fill="white"/>
<circle cx="37" cy="30" r="17.5" fill="white" stroke="#FDE047"/>
<path d="M44.0594 34.1179H29.9406V46.8248L37 44.707L44.0594 46.8248V34.1179Z" fill="#EF4444"/>
<path d="M44.0594 37.1769L43.7101 37.1843C42.4196 37.21 41.2504 37.8866 40.5775 38.9933L40.379 39.3205C40.1216 39.747 39.5811 39.8904 39.1436 39.6514L38.809 39.4676C38.2428 39.1551 37.6214 38.997 37 38.997C36.3786 38.997 35.7572 39.1551 35.191 39.4676L34.8564 39.6514C34.4226 39.8904 33.8784 39.7433 33.621 39.3205L33.4225 38.9896C32.7533 37.8866 31.5841 37.21 30.2935 37.1843L29.9406 37.1769V40.0007L30.2347 40.0081C30.5509 40.0118 30.8414 40.1809 31.0068 40.453L31.2054 40.7802C32.2496 42.5046 34.4483 43.0966 36.2205 42.1222L36.5551 41.9384C36.8345 41.7876 37.1691 41.7876 37.4449 41.9384L37.7832 42.1259C38.3604 42.4421 38.9818 42.5929 39.5921 42.5929C40.8606 42.5929 42.0924 41.9457 42.7983 40.7802L42.9969 40.453C43.1623 40.1809 43.4491 40.0118 43.769 40.0044L44.0594 40.0007V37.1769Z" fill="#B91C1C"/>
<path d="M48.5231 30.3014C48.137 29.6028 48.137 28.7498 48.5231 28.0512L48.7106 27.7129C49.3136 26.6172 48.9459 25.2384 47.8723 24.5876L47.545 24.3891C46.8575 23.9736 46.4346 23.2382 46.4163 22.4404L46.4089 22.0543C46.3832 20.8005 45.372 19.7931 44.1219 19.7674L43.7359 19.76C42.9343 19.7416 42.199 19.3151 41.7872 18.6312L41.585 18.304C40.9378 17.2304 39.559 16.8627 38.4597 17.4657L38.1251 17.6495C37.4228 18.0356 36.5735 18.0356 35.8712 17.6495L35.5366 17.4657C34.4373 16.8627 33.0585 17.2304 32.4114 18.304L32.2128 18.6312C31.7973 19.3188 31.062 19.7416 30.2604 19.76L29.8781 19.7674C28.6243 19.7931 27.6168 20.8005 27.5911 22.0543L27.5801 22.4404C27.5654 23.2382 27.1388 23.9773 26.455 24.3891L26.1277 24.5876C25.0541 25.2384 24.6864 26.6172 25.2894 27.7166L25.4733 28.0512C25.8593 28.7534 25.8593 29.6028 25.4733 30.305L25.2894 30.6396C24.6864 31.7353 25.0541 33.1178 26.1277 33.7649L26.455 33.9634C27.1388 34.3789 27.5654 35.1143 27.5837 35.9158L27.5911 36.2982C27.6168 37.552 28.6243 38.5594 29.8781 38.5852L30.2641 38.5962C31.062 38.6109 31.801 39.0374 32.2128 39.7213L32.4114 40.0485C33.0622 41.1222 34.441 41.4898 35.5366 40.8868L35.8749 40.703C36.5735 40.3169 37.4265 40.3169 38.1251 40.703L38.4634 40.8868C39.559 41.4898 40.9415 41.1222 41.5886 40.0485L41.7872 39.7213C42.2027 39.0374 42.938 38.6109 43.7396 38.5962L44.1219 38.5852C45.3757 38.5594 46.3832 37.552 46.4089 36.2982L46.4199 35.9158C46.4346 35.1143 46.8611 34.3789 47.545 33.9634L47.8723 33.7649C48.9459 33.1178 49.3136 31.7353 48.7106 30.6396L48.5231 30.3014Z" fill="#EAB308"/>
<path d="M37 21.3557C32.6798 21.3557 29.1795 24.856 29.1795 29.1763C29.1795 33.4965 32.6798 36.9968 37 36.9968C41.3166 36.9968 44.8205 33.4965 44.8205 29.1763C44.8205 24.856 41.3166 21.3557 37 21.3557Z" fill="#FACC15"/>
<path d="M37 37.6476C32.3305 37.6476 28.5287 33.8495 28.5287 29.1763C28.5287 24.5067 32.3268 20.7049 37 20.7049C41.6732 20.7049 45.4713 24.5067 45.4713 29.1763C45.4713 33.8458 41.6695 37.6476 37 37.6476ZM37 22.1168C33.1063 22.1168 29.9406 25.2825 29.9406 29.1763C29.9406 33.07 33.1063 36.2357 37 36.2357C40.8937 36.2357 44.0594 33.07 44.0594 29.1763C44.0594 25.2825 40.8937 22.1168 37 22.1168Z" fill="#CA8A04"/>
</g>
<defs>
<filter id="filter0_d_11687_16970" x="-1" y="0" width="76" height="81.017" filterUnits="userSpaceOnUse" color-interpolation-filters="sRGB">
<feFlood flood-opacity="0" result="BackgroundImageFix"/>
<feColorMatrix in="SourceAlpha" type="matrix" values="0 0 0 0 0 0 0 0 0 0 0 0 0 0 0 0 0 0 127 0" result="hardAlpha"/>
<feOffset dy="1"/>
<feGaussianBlur stdDeviation="1"/>
<feColorMatrix type="matrix" values="0 0 0 0 0.117647 0 0 0 0 0.160784 0 0 0 0 0.231373 0 0 0 0.05 0"/>
<feBlend mode="normal" in2="BackgroundImageFix" result="effect1_dropShadow_11687_16970"/>
<feBlend mode="normal" in="SourceGraphic" in2="effect1_dropShadow_11687_16970" result="shape"/>
</filter>
</defs>
</svg>
